<?xml version="1.0" encoding="utf-8"?>
<!-- Generator: Adobe Illustrator 24.0.2, SVG Export Plug-In . SVG Version: 6.00 Build 0)  -->
<svg version="1.1" id="Warstwa_1" xmlns="http://www.w3.org/2000/svg" xmlns:xlink="http://www.w3.org/1999/xlink" x="0px" y="0px"
	 viewBox="0 0 430 430" style="enable-background:new 0 0 430 430;" xml:space="preserve">
<style type="text/css">
	.st0{fill:#ebe6ef;}
	.st1{opacity:0.5;}
	.st2{fill:#121331;}
	.st3{fill:#3A3347;}
	.st4{fill:#4BB3FD;}
	.st5{fill:#f24c00;}
	.st6{fill:#ffc738;}
	.st7{fill:#2CA58D;}
	.st8{display:none;}
	.st9{display:inline;fill:none;stroke:#121331;stroke-width:7;stroke-linecap:round;stroke-linejoin:round;}
	.st10{display:none;fill:none;stroke:#121331;stroke-width:7;stroke-linecap:round;stroke-linejoin:round;stroke-miterlimit:10;}
	.st11{fill:#F9C9C0;}
	.st12{fill:#F28BA8;}
	.st13{fill:#646E78;}
	.st14{fill:#B26836;}
	.st15{opacity:0.6;}
	.st16{opacity:0.7;}
	.st17{fill:#92140C;}
	.st18{opacity:0;}
	.st19{opacity:0.4;}
	.st20{opacity:0.8;}
	.st21{fill:none;}
	.st22{opacity:0.2;clip-path:url(#SVGID_2_);}
	.st23{opacity:0.2;clip-path:url(#SVGID_4_);}
	.st24{opacity:0.2;clip-path:url(#SVGID_6_);}
	.st25{opacity:0.2;clip-path:url(#SVGID_8_);}
	.st26{opacity:0.2;clip-path:url(#SVGID_10_);}
	.st27{opacity:0.2;clip-path:url(#SVGID_12_);}
	.st28{fill:#FFFFFF;}
</style>
<g>
	<polygon class="st0" points="279.26,153.3 209.11,153.3 181.22,106.73 229.85,77.78 264.3,130.23 266.87,134.13 266.87,134.14 
		267.14,134.56 	"/>
</g>
<g>
	<polygon class="st0" points="342.67,155.3 276.26,155.3 264.94,137.85 313.63,109.27 	"/>
</g>
<g class="st16">
	<polygon class="st0" points="279.26,153.3 209.11,153.3 181.22,106.73 229.85,77.78 264.3,130.23 266.87,134.13 266.87,134.14 
		267.14,134.56 	"/>
</g>
<g>
	<polygon class="st0" points="212.11,155.3 72.65,155.3 62.88,138.82 163.39,74.24 183.34,107.47 184,108.57 211.21,153.79 	"/>
</g>
<g>
	<path class="st5" d="M399.9,166.2v17.2c0,7.14-5.76,12.9-12.9,12.9h-2.15l-0.02,0.07l-7.15,24.8l-37.77,131.11
		c-3.29,11.4-15.59,20.65-27.45,20.65H119.12c-11.86,0-24.26-9.23-27.65-20.6L52.31,221.17l-6.16-20.66l-1.26-4.21H43
		c-7.14,0-12.9-5.76-12.9-12.9v-17.2c0-7.14,5.76-12.9,12.9-12.9h344C394.14,153.3,399.9,159.06,399.9,166.2z"/>
</g>
<g>
	<path class="st5" d="M399.9,166.2v17.2c0,7.14-5.76,12.9-12.9,12.9h-2.15l-0.02,0.07H44.91l-0.02-0.07H43
		c-7.14,0-12.9-5.76-12.9-12.9v-17.2c0-7.14,5.76-12.9,12.9-12.9h344C394.14,153.3,399.9,159.06,399.9,166.2z"/>
</g>
<g class="st20">
	<g>
		<path class="st5" d="M257.83,345.35c-0.14,0-0.28-0.01-0.42-0.03c-1.92-0.23-3.29-1.97-3.06-3.89l10.92-90.95
			c0.23-1.92,1.98-3.29,3.89-3.06c1.92,0.23,3.29,1.97,3.06,3.89l-10.92,90.95C261.09,344.04,259.58,345.35,257.83,345.35z
			 M214.6,345.35c-0.01,0-0.01,0-0.02,0c-1.93-0.01-3.49-1.58-3.48-3.52l0.4-78.82c0.01-1.93,1.58-3.48,3.5-3.48
			c0.01,0,0.01,0,0.02,0c1.93,0.01,3.49,1.58,3.48,3.52l-0.4,78.82C218.09,343.79,216.52,345.35,214.6,345.35z M298.78,345.31
			c-0.27,0-0.54-0.03-0.81-0.09c-1.88-0.44-3.05-2.33-2.6-4.21l25.87-109.55c0.44-1.88,2.33-3.05,4.21-2.6
			c1.88,0.44,3.05,2.33,2.6,4.21l-25.87,109.55C301.81,344.22,300.37,345.31,298.78,345.31z M130.22,344.89
			c-1.59,0-3.03-1.1-3.41-2.71l-24.87-107.84c-0.43-1.88,0.74-3.76,2.62-4.2c1.88-0.44,3.76,0.74,4.2,2.62l24.87,107.84
			c0.43,1.88-0.74,3.76-2.62,4.2C130.74,344.86,130.48,344.89,130.22,344.89z M171.07,344.35c-1.76,0-3.28-1.33-3.47-3.12
			l-9.82-89.03c-0.21-1.92,1.17-3.65,3.09-3.86c1.92-0.21,3.65,1.17,3.86,3.1l9.82,89.03c0.21,1.92-1.17,3.65-3.09,3.86
			C171.32,344.34,171.19,344.35,171.07,344.35z"/>
	</g>
</g>
<g class="st1">
	<polygon class="st5" points="384.9,196.37 377.75,221.17 52.38,221.17 46.22,200.51 45.1,196.45 	"/>
</g>
<g>
	<path class="st6" d="M228.21,54.35c2.21,0,4,1.79,4,4v162.39c0,9.5-7.7,17.21-17.21,17.21s-17.21-7.71-17.21-17.21V58.35
		c0-2.21,1.79-4,4-4H228.21z"/>
</g>
</svg>
