<svg id="visual" viewBox="0 0 900 600" width="900" height="600" xmlns="http://www.w3.org/2000/svg" xmlns:xlink="http://www.w3.org/1999/xlink" version="1.1"><rect x="0" y="0" width="900" height="600" fill="#001220"></rect><defs><linearGradient id="grad1_0" x1="33.3%" y1="0%" x2="100%" y2="100%"><stop offset="20%" stop-color="#001220" stop-opacity="1"></stop><stop offset="80%" stop-color="#001220" stop-opacity="1"></stop></linearGradient></defs><defs><linearGradient id="grad2_0" x1="0%" y1="0%" x2="66.7%" y2="100%"><stop offset="20%" stop-color="#001220" stop-opacity="1"></stop><stop offset="80%" stop-color="#001220" stop-opacity="1"></stop></linearGradient></defs><g transform="translate(900, 0)"><path d="M0 540.8C-32.8 420.5 -65.5 300.2 -156 270.2C-246.5 240.2 -394.6 300.4 -468.4 270.4C-542.1 240.4 -541.5 120.2 -540.8 0L0 0Z" fill="#c4c924"></path></g><g transform="translate(0, 600)"><path d="M0 -540.8C118.4 -540.4 236.7 -540 270.4 -468.4C304.1 -396.8 253.1 -253.9 284.1 -164C315 -74.1 427.9 -37 540.8 0L0 0Z" fill="#c4c924"></path></g></svg>