<svg id="visual" viewBox="0 0 900 600" width="900" height="600" xmlns="http://www.w3.org/2000/svg" xmlns:xlink="http://www.w3.org/1999/xlink" version="1.1"><rect x="0" y="0" width="900" height="600" fill="#C0EB36"></rect><defs><linearGradient id="grad1_0" x1="33.3%" y1="0%" x2="100%" y2="100%"><stop offset="20%" stop-color="#c0eb36" stop-opacity="1"></stop><stop offset="80%" stop-color="#c0eb36" stop-opacity="1"></stop></linearGradient></defs><defs><linearGradient id="grad2_0" x1="0%" y1="0%" x2="66.7%" y2="100%"><stop offset="20%" stop-color="#c0eb36" stop-opacity="1"></stop><stop offset="80%" stop-color="#c0eb36" stop-opacity="1"></stop></linearGradient></defs><g transform="translate(900, 0)"><path d="M0 540.8C-105 532.7 -209.9 524.5 -270.4 468.4C-330.9 412.2 -346.9 308.1 -384.5 222C-422.2 135.9 -481.5 68 -540.8 0L0 0Z" fill="#ffffff"></path></g><g transform="translate(0, 600)"><path d="M0 -540.8C69.3 -483.8 138.6 -426.8 224.5 -388.8C310.4 -350.9 412.9 -332 468.4 -270.4C523.9 -208.8 532.3 -104.4 540.8 0L0 0Z" fill="#ffffff"></path></g></svg>